# xmcd
#
# Track frame offsets:
#	150
#	17087
#	36437
#	54820
#	72495
#	90877
#	107910
#	125207
#	150092
#	166737
#
# Disc length: 2460 seconds
#
# Revision: 1
# Processed by: cddbd v1.4PL0 Copyright (c) Steve Scherf et al.
# Submitted via: audiograbber 1.81.02
#
DISCID=74099a0a
DTITLE=Los Acosta - Poemas...Para Tu Corazon
DYEAR=2000
DGENRE=Latin
TTITLE0=A Escondidas
TTITLE1=Deja Una Rosa En Tu Balcon
TTITLE2=Cuando Escuches En La Radio Esta Cancion
TTITLE3=En Algun Lugar
TTITLE4=Te Necesito
TTITLE5=Contra El Dragon
TTITLE6=Como Una Novela
TTITLE7=Amor Imposible
TTITLE8=Para Que Querer A Esa Mujer
TTITLE9=En Aquel Cafe
EXTD=
EXTT0=
EXTT1=
EXTT2=
EXTT3=
EXTT4=
EXTT5=
EXTT6=
EXTT7=
EXTT8=
EXTT9=
PLAYORDER=
